# xmcd
#
# Track frame offsets:
#	150
#	12077
#	24382
#	36565
#	48535
#	62020
#	75000
#	87190
#	99432
#	111579
#	123477
#	135755
#	146785
#	158337
#	169570
#	181832
#	195532
#	208222
#	220537
#	231330
#	242284
#	255022
#	268147
#	280112
#
# Disc length: 3884 seconds
#
# Revision: 1
# Processed by: cddbd v1.5.2PL0 Copyright (c) Steve Scherf et al.
# Submitted via: EasyCDDAExtractor 2010.6.0.0
#
DISCID=360f2a18
DTITLE=Lester Flatt and Earl Scruggs - Down The Road
DYEAR=1900
DGENRE=Bluegrass
TTITLE0=My Cabin In Caroline
TTITLE1=We'll Meet Again Sweetheart
TTITLE2=God Loves His Children
TTITLE3=I'm Going To Make Heaven My Home
TTITLE4=Baby Blue Eyes
TTITLE5=Bouquet In Heaven
TTITLE6=Down The Road
TTITLE7=Why Don't You Tell Me So
TTITLE8=Foggy Mountain Breakdown
TTITLE9=Is It Too Late Now
TTITLE10=No Mother Or Dad
TTITLE11=I'll Never Shed Another Tear
TTITLE12=I'll Be Going To Heaven Sometime
TTITLE13=So Happy I'll Be
TTITLE14=My Little Girl In Tennessee
TTITLE15=I'll Never Love Another
TTITLE16=Doin' My Time
TTITLE17=Pike County Breakdown
TTITLE18=Cora Is Gone
TTITLE19=Preachin', Prayin', Singin'
TTITLE20=Pain In My Heart
TTITLE21=Back To The Cross
TTITLE22=Roll In My Sweet Baby's Arms
TTITLE23=Farewell Blues
EXTD=ID3G: 89
EXTT0=
EXTT1=
EXTT2=
EXTT3=
EXTT4=
EXTT5=
EXTT6=
EXTT7=
EXTT8=
EXTT9=
EXTT10=
EXTT11=
EXTT12=
EXTT13=
EXTT14=
EXTT15=
EXTT16=
EXTT17=
EXTT18=
EXTT19=
EXTT20=
EXTT21=
EXTT22=
EXTT23=
PLAYORDER=
